<svg width="34.999969" height="34.930054" viewBox="0 0 35 34.9301" fill="none" xmlns="http://www.w3.org/2000/svg" xmlns:xlink="http://www.w3.org/1999/xlink">
	<desc>
			Created with Pixso.
	</desc>
	<defs/>
	<path id="Vector" d="M0.05 26.92C0.6 31.49 6.09 34.93 12.83 34.93C18.9 34.93 24.05 32.13 25.36 28.12L25.36 28.12C25.57 27.5 25.67 26.85 25.67 26.2C25.67 26.01 25.66 25.81 25.63 25.62L25.63 25.55L25.63 25.55C25.39 23.83 24.53 22.25 23.22 21.1C24.72 21.76 26.33 22.11 27.96 22.14C29.32 22.17 30.66 21.83 31.84 21.17L31.84 21.17C32.3 20.91 32.72 20.59 33.09 20.23C33.37 19.94 33.62 19.63 33.84 19.29L33.84 19.29C36.3 15.59 34.72 9.36 30.17 4.81C25.96 0.6 20.17 -1.12 16.4 0.74C15.79 1.03 15.24 1.42 14.76 1.89C14.58 2.07 14.42 2.26 14.27 2.46L14.27 2.46C11.46 6.07 12.96 12.6 17.67 17.31C18.14 17.77 18.63 18.21 19.14 18.63C17.13 17.86 14.99 17.47 12.83 17.48C6.81 17.48 1.54 20.37 0.28 24.36C0.09 24.95 0 25.58 0 26.2C0 26.44 0.02 26.69 0.05 26.92L0.05 26.92ZM12.83 33.76C7.16 33.76 2.31 31.06 1.35 27.5C1.37 27.5 1.39 27.51 1.42 27.51C1.62 27.53 1.82 27.56 2.01 27.59C2.04 27.59 2.06 27.6 2.09 27.6C2.26 27.63 2.43 27.66 2.59 27.69C2.61 27.7 2.64 27.7 2.67 27.71C2.84 27.75 3 27.78 3.16 27.82C3.2 27.83 3.23 27.84 3.27 27.85C3.42 27.89 3.58 27.93 3.73 27.97C5.24 28.4 6.8 28.6 8.36 28.57C9.92 28.6 11.48 28.4 12.98 27.97C14.39 27.56 15.85 27.37 17.31 27.4C18.77 27.37 20.23 27.56 21.64 27.97C21.78 28.01 21.93 28.04 22.08 28.08C22.12 28.09 22.15 28.1 22.19 28.11C22.35 28.15 22.51 28.19 22.68 28.22C22.7 28.23 22.72 28.23 22.75 28.24C22.9 28.27 23.07 28.3 23.24 28.33C23.27 28.34 23.3 28.34 23.33 28.35C23.52 28.38 23.71 28.41 23.92 28.44C23.94 28.44 23.95 28.44 23.97 28.44C22.46 31.56 17.94 33.76 12.83 33.76ZM29.35 5.64C33.17 9.46 34.77 14.69 33.24 17.97C33.23 17.95 33.21 17.94 33.19 17.92C33.04 17.74 32.9 17.56 32.77 17.39C32.76 17.38 32.75 17.36 32.74 17.35C32.62 17.19 32.5 17.03 32.4 16.88C32.38 16.86 32.37 16.83 32.35 16.81C32.24 16.65 32.14 16.5 32.05 16.35C32.03 16.32 32.01 16.29 31.99 16.26C31.9 16.11 31.81 15.97 31.72 15.82C30.94 14.46 29.96 13.23 28.82 12.17C27.72 11.06 26.46 10.12 25.08 9.38C23.79 8.69 22.62 7.82 21.59 6.78C20.52 5.78 19.6 4.63 18.87 3.36C18.8 3.24 18.72 3.12 18.65 2.99L18.59 2.9C18.51 2.76 18.42 2.63 18.33 2.49C18.32 2.48 18.31 2.46 18.3 2.44C18.22 2.32 18.13 2.19 18.04 2.06C18.01 2.03 17.99 2 17.97 1.97C17.87 1.83 17.76 1.68 17.63 1.53C17.63 1.52 17.62 1.51 17.61 1.5C20.95 0.37 25.74 2.03 29.35 5.64ZM15.58 2.72C15.86 2.44 16.18 2.2 16.52 2C16.53 2.01 16.53 2.02 16.54 2.03C16.67 2.19 16.79 2.34 16.9 2.49C16.92 2.51 16.94 2.53 16.95 2.56C17.06 2.7 17.16 2.85 17.26 2.99C17.28 3.02 17.29 3.04 17.31 3.07C17.41 3.21 17.49 3.35 17.58 3.48C17.59 3.51 17.61 3.53 17.62 3.56C17.71 3.69 17.79 3.83 17.88 3.97C18.66 5.32 19.63 6.55 20.77 7.62C21.87 8.72 23.13 9.66 24.51 10.4C25.8 11.09 26.98 11.97 28.01 13.01C29.08 14 29.99 15.16 30.72 16.42C30.78 16.52 30.84 16.62 30.91 16.72C30.93 16.76 30.95 16.79 30.97 16.82C31.01 16.89 31.06 16.96 31.1 17.03C31.13 17.07 31.15 17.12 31.18 17.16C31.22 17.22 31.27 17.29 31.31 17.36C31.34 17.4 31.37 17.45 31.4 17.49C31.45 17.56 31.49 17.62 31.54 17.69C31.57 17.74 31.61 17.79 31.64 17.83C31.69 17.9 31.74 17.97 31.79 18.04C31.83 18.09 31.87 18.14 31.91 18.19C31.97 18.26 32.02 18.33 32.08 18.41C32.13 18.46 32.17 18.51 32.22 18.57C32.28 18.64 32.34 18.72 32.41 18.8C32.46 18.85 32.51 18.91 32.56 18.97C32.58 18.99 32.59 19 32.6 19.02C32.5 19.15 32.38 19.28 32.26 19.4C32.08 19.59 31.87 19.76 31.65 19.91L31.63 19.89C31.59 19.84 31.56 19.8 31.52 19.76C31.46 19.68 31.39 19.61 31.33 19.53C31.29 19.48 31.25 19.44 31.22 19.39C31.16 19.33 31.11 19.26 31.06 19.19C31.02 19.15 30.99 19.1 30.95 19.06C30.91 19 30.86 18.93 30.82 18.87C30.79 18.83 30.76 18.79 30.73 18.74C30.68 18.68 30.64 18.62 30.6 18.56C30.57 18.52 30.55 18.48 30.52 18.44C30.48 18.38 30.44 18.32 30.4 18.26C30.37 18.22 30.35 18.18 30.33 18.14C30.28 18.08 30.24 18.01 30.2 17.95C30.18 17.91 30.16 17.88 30.14 17.85C30.09 17.76 30.03 17.66 29.97 17.57C29.19 16.22 28.21 14.99 27.07 13.92C25.97 12.81 24.71 11.87 23.33 11.13C22.04 10.45 20.86 9.57 19.84 8.53C18.77 7.53 17.85 6.38 17.12 5.11C17.03 4.96 16.94 4.81 16.84 4.66C16.82 4.63 16.8 4.6 16.78 4.57C16.69 4.41 16.59 4.26 16.48 4.1C16.46 4.06 16.43 4.03 16.41 4C16.3 3.83 16.18 3.66 16.04 3.49C16.02 3.46 16 3.43 15.97 3.4C15.83 3.21 15.68 3.02 15.5 2.81L15.5 2.81C15.53 2.78 15.55 2.75 15.58 2.72ZM18.5 16.48C14.46 12.44 12.93 7.04 14.79 3.78C14.8 3.8 14.82 3.82 14.83 3.83C14.96 3.99 15.07 4.14 15.18 4.28C15.2 4.31 15.22 4.33 15.24 4.36C15.33 4.49 15.42 4.62 15.51 4.75C15.52 4.77 15.54 4.79 15.56 4.81C15.65 4.96 15.74 5.09 15.82 5.23C15.84 5.26 15.86 5.29 15.88 5.32C15.96 5.45 16.04 5.58 16.12 5.72C16.9 7.07 17.88 8.3 19.02 9.37C20.12 10.47 21.38 11.41 22.76 12.15C24.05 12.84 25.23 13.72 26.26 14.76C27.33 15.75 28.24 16.91 28.97 18.18C29.06 18.32 29.16 18.47 29.25 18.62C29.27 18.66 29.29 18.69 29.32 18.73C29.41 18.88 29.52 19.04 29.63 19.21C29.65 19.24 29.67 19.27 29.7 19.31C29.81 19.47 29.93 19.64 30.07 19.82L30.08 19.84C30.22 20.02 30.38 20.21 30.54 20.41C30.56 20.43 30.58 20.46 30.6 20.48C27.29 21.85 22.25 20.23 18.5 16.48ZM12.83 18.65C18.56 18.65 23.42 21.37 24.34 24.97C24.32 24.97 24.29 24.97 24.27 24.96C24.06 24.94 23.86 24.91 23.67 24.88C23.64 24.88 23.62 24.88 23.59 24.87C23.42 24.84 23.26 24.81 23.1 24.78C23.07 24.77 23.03 24.77 23 24.76C22.84 24.73 22.67 24.69 22.52 24.65C22.47 24.64 22.43 24.63 22.39 24.62C22.24 24.58 22.09 24.54 21.94 24.5C20.43 24.08 18.87 23.87 17.31 23.9C15.75 23.87 14.19 24.08 12.69 24.5C11.28 24.91 9.82 25.1 8.36 25.07C6.9 25.1 5.44 24.91 4.03 24.5C3.89 24.47 3.74 24.43 3.59 24.39C3.55 24.38 3.51 24.37 3.47 24.36C3.31 24.32 3.15 24.28 2.98 24.25C2.95 24.24 2.93 24.24 2.9 24.23C2.74 24.2 2.58 24.16 2.41 24.14C2.38 24.13 2.35 24.12 2.32 24.12C2.13 24.09 1.93 24.06 1.72 24.03C1.7 24.03 1.68 24.03 1.66 24.02C3.14 20.87 7.68 18.65 12.83 18.65ZM1.28 25.15L1.3 25.16C1.52 25.18 1.73 25.21 1.93 25.24C1.96 25.24 1.99 25.25 2.02 25.25C2.21 25.28 2.39 25.32 2.56 25.35C2.6 25.36 2.63 25.37 2.67 25.37C2.84 25.41 3 25.45 3.16 25.49C3.2 25.5 3.23 25.5 3.27 25.51C3.42 25.55 3.58 25.59 3.74 25.63C5.24 26.06 6.8 26.26 8.36 26.24C9.92 26.26 11.48 26.06 12.98 25.63C14.39 25.23 15.85 25.04 17.31 25.07C18.77 25.04 20.24 25.23 21.64 25.63C21.75 25.66 21.85 25.69 21.96 25.71C22 25.72 22.04 25.73 22.08 25.74C22.15 25.76 22.22 25.78 22.29 25.8C22.34 25.81 22.38 25.82 22.43 25.83C22.5 25.84 22.57 25.86 22.65 25.88C22.69 25.89 22.74 25.9 22.79 25.91C22.86 25.92 22.94 25.94 23.02 25.95C23.07 25.96 23.12 25.97 23.17 25.98C23.25 26 23.33 26.01 23.42 26.03C23.47 26.03 23.52 26.04 23.57 26.05C23.66 26.06 23.76 26.08 23.86 26.09C23.91 26.1 23.96 26.1 24.01 26.11C24.12 26.12 24.24 26.14 24.36 26.15C24.4 26.15 24.44 26.16 24.49 26.16L24.51 26.16C24.51 26.18 24.51 26.19 24.51 26.2C24.51 26.58 24.46 26.95 24.38 27.31L24.35 27.31C24.13 27.29 23.93 27.26 23.73 27.23C23.7 27.23 23.67 27.22 23.64 27.22C23.45 27.19 23.27 27.15 23.1 27.12C23.06 27.11 23.03 27.1 22.99 27.1C22.83 27.06 22.66 27.02 22.51 26.98C22.47 26.98 22.43 26.97 22.39 26.96C22.24 26.92 22.09 26.88 21.93 26.84C20.43 26.41 18.87 26.21 17.31 26.24C15.75 26.21 14.19 26.41 12.69 26.84C11.28 27.24 9.82 27.43 8.36 27.4C6.89 27.43 5.43 27.24 4.03 26.84C3.92 26.81 3.81 26.78 3.71 26.76C3.67 26.75 3.64 26.74 3.61 26.73C3.53 26.71 3.45 26.69 3.37 26.67C3.33 26.66 3.29 26.65 3.24 26.64C3.17 26.63 3.1 26.61 3.03 26.59C2.98 26.58 2.93 26.57 2.88 26.56C2.81 26.55 2.73 26.53 2.66 26.52C2.61 26.51 2.55 26.5 2.49 26.49C2.42 26.47 2.35 26.46 2.27 26.45C2.21 26.44 2.15 26.43 2.09 26.42C2.01 26.41 1.93 26.4 1.84 26.38C1.78 26.38 1.72 26.37 1.65 26.36C1.56 26.35 1.46 26.34 1.37 26.33C1.3 26.32 1.24 26.32 1.18 26.31L1.16 26.31C1.16 26.27 1.16 26.24 1.16 26.2C1.16 25.85 1.2 25.5 1.28 25.15Z" fill="#000000" fill-opacity="1.000000" fill-rule="nonzero"/>
</svg>
